# xmcd
#
# Track frame offsets: 
#        150
#        21872
#        38161
#        54961
#        73111
#        97410
#
# Disc length: 1489 seconds
#
# Revision: 0
# Processed by: cddbd v1.5.2PL0 Copyright (c) Steve Scherf et al.
# Submitted via: ExactAudioCopyFreeDBPlugin 1.0
#
DISCID=4f05cf06
DTITLE=おやすみホログラム - 17
DYEAR=2017
DGENRE=Punk
TTITLE0=slow dancer
TTITLE1=Lemon
TTITLE2=Mother
TTITLE3=Hole of my underground
TTITLE4=slow dancer (acoustic version)
TTITLE5=Lemon (acoustic version)
EXTD=
EXTT0=
EXTT1=
EXTT2=
EXTT3=
EXTT4=
EXTT5=
PLAYORDER=
